REM DIRINDEX 1\5,1\2\6,1\2\7,1\3\8,1\3\9,1\3\10,1\3\11,1\4\12,1\4\13,1\4\14
REM DIRNAME folder01,folder02,folder03,folder04,folder05,folder06,folder07,folder08,folder09,folder10,folder11,folder12,folder13,folder14
TITLE ""
FILE "4Q_j_597-604.mp3" MP3
  TRACK 01 AUDIO
    TITLE "8:cjc042_0641"
    INDEX 01 00:00:00
  TRACK 02 AUDIO
    TITLE "0:"
    INDEX 01 00:00:74
  TRACK 03 AUDIO
    TITLE "9:cjc042_0642"
    INDEX 01 00:01:58
  TRACK 04 AUDIO
    TITLE "0:"
    INDEX 01 00:03:72
  TRACK 05 AUDIO
    TITLE "10:cjc042_0643"
    INDEX 01 00:04:54
  TRACK 06 AUDIO
    TITLE "0:"
    INDEX 01 00:08:38
  TRACK 07 AUDIO
    TITLE "11:cjc042_0644"
    INDEX 01 00:09:22
  TRACK 08 AUDIO
    TITLE "0:"
    INDEX 01 00:12:46
  TRACK 09 AUDIO
    TITLE "8:cjc042_0645"
    INDEX 01 00:13:32
  TRACK 10 AUDIO
    TITLE "0:"
    INDEX 01 00:14:54
  TRACK 11 AUDIO
    TITLE "9:cjc042_0646"
    INDEX 01 00:15:32
  TRACK 12 AUDIO
    TITLE "0:"
    INDEX 01 00:17:18
  TRACK 13 AUDIO
    TITLE "10:cjc042_0647"
    INDEX 01 00:17:70
  TRACK 14 AUDIO
    TITLE "0:"
    INDEX 01 00:21:64
  TRACK 15 AUDIO
    TITLE "11:cjc042_0648"
    INDEX 01 00:22:44
  TRACK 16 AUDIO
    TITLE "0:"
    INDEX 01 00:26:60
  TRACK 17 AUDIO
    TITLE "8:cjc042_0649"
    INDEX 01 00:27:38
  TRACK 18 AUDIO
    TITLE "0:"
    INDEX 01 00:29:13
  TRACK 19 AUDIO
    TITLE "9:cjc042_0650"
    INDEX 01 00:29:72
  TRACK 20 AUDIO
    TITLE "0:"
    INDEX 01 00:31:35
  TRACK 21 AUDIO
    TITLE "10:cjc042_0651"
    INDEX 01 00:32:13
  TRACK 22 AUDIO
    TITLE "0:"
    INDEX 01 00:35:10
  TRACK 23 AUDIO
    TITLE "11:cjc042_0652"
    INDEX 01 00:35:70
  TRACK 24 AUDIO
    TITLE "0:"
    INDEX 01 00:39:09
  TRACK 25 AUDIO
    TITLE "8:cjc042_0653"
    INDEX 01 00:39:66
  TRACK 26 AUDIO
    TITLE "0:"
    INDEX 01 00:42:00
  TRACK 27 AUDIO
    TITLE "9:cjc042_0654"
    INDEX 01 00:42:59
  TRACK 28 AUDIO
    TITLE "0:"
    INDEX 01 00:46:06
  TRACK 29 AUDIO
    TITLE "10:cjc042_0655"
    INDEX 01 00:46:60
  TRACK 30 AUDIO
    TITLE "0:"
    INDEX 01 00:50:13
  TRACK 31 AUDIO
    TITLE "11:cjc042_0656"
    INDEX 01 00:50:72
  TRACK 32 AUDIO
    TITLE "0:"
    INDEX 01 00:54:66
  TRACK 33 AUDIO
    TITLE "8:cjc042_0657"
    INDEX 01 00:55:50
  TRACK 34 AUDIO
    TITLE "0:"
    INDEX 01 00:59:53
  TRACK 35 AUDIO
    TITLE "9:cjc042_0658"
    INDEX 01 01:00:33
  TRACK 36 AUDIO
    TITLE "0:"
    INDEX 01 01:02:08
  TRACK 37 AUDIO
    TITLE "10:cjc042_0659"
    INDEX 01 01:02:63
  TRACK 38 AUDIO
    TITLE "0:"
    INDEX 01 01:06:36
  TRACK 39 AUDIO
    TITLE "11:cjc042_0660"
    INDEX 01 01:07:17
  TRACK 40 AUDIO
    TITLE "0:"
    INDEX 01 01:10:61
  TRACK 41 AUDIO
    TITLE "8:cjc042_0661"
    INDEX 01 01:11:41
  TRACK 42 AUDIO
    TITLE "0:"
    INDEX 01 01:13:04
  TRACK 43 AUDIO
    TITLE "9:cjc042_0662"
    INDEX 01 01:13:57
  TRACK 44 AUDIO
    TITLE "0:"
    INDEX 01 01:15:25
  TRACK 45 AUDIO
    TITLE "10:cjc042_0663"
    INDEX 01 01:16:05
  TRACK 46 AUDIO
    TITLE "0:"
    INDEX 01 01:17:63
  TRACK 47 AUDIO
    TITLE "11:cjc042_0664"
    INDEX 01 01:18:45
  TRACK 48 AUDIO
    TITLE "0:"
    INDEX 01 01:20:59
  TRACK 49 AUDIO
    TITLE "8:cjc042_0665"
    INDEX 01 01:21:43
  TRACK 50 AUDIO
    TITLE "0:"
    INDEX 01 01:22:74
  TRACK 51 AUDIO
    TITLE "9:cjc042_0666"
    INDEX 01 01:23:56
  TRACK 52 AUDIO
    TITLE "0:"
    INDEX 01 01:27:24
  TRACK 53 AUDIO
    TITLE "10:cjc042_0667"
    INDEX 01 01:28:00
  TRACK 54 AUDIO
    TITLE "0:"
    INDEX 01 01:31:39
  TRACK 55 AUDIO
    TITLE "11:cjc042_0668"
    INDEX 01 01:32:23
  TRACK 56 AUDIO
    TITLE "0:"
    INDEX 01 01:36:68
  TRACK 57 AUDIO
    TITLE "8:cjc042_0669"
    INDEX 01 01:37:52
  TRACK 58 AUDIO
    TITLE "0:"
    INDEX 01 01:39:27
  TRACK 59 AUDIO
    TITLE "9:cjc042_0670"
    INDEX 01 01:40:11
  TRACK 60 AUDIO
    TITLE "0:"
    INDEX 01 01:44:17
  TRACK 61 AUDIO
    TITLE "10:cjc042_0671"
    INDEX 01 01:45:02
  TRACK 62 AUDIO
    TITLE "0:"
    INDEX 01 01:48:65
  TRACK 63 AUDIO
    TITLE "11:cjc042_0672"
    INDEX 01 01:49:47
  TRACK 64 AUDIO
    TITLE "0:"
    INDEX 01 01:53:70
